<?xml version="1.0" encoding="utf-8"?>
<!-- Generator: Adobe Illustrator 28.2.0, SVG Export Plug-In . SVG Version: 6.00 Build 0)  -->
<svg version="1.1" id="Layer_1" xmlns="http://www.w3.org/2000/svg" xmlns:xlink="http://www.w3.org/1999/xlink" x="0px" y="0px"
	 viewBox="0 0 24 24" style="enable-background:new 0 0 24 24;" xml:space="preserve">
<style type="text/css">
	.st0{fill:#FFFFFF;}
	.st1{fill:#888888;}
	.st2{fill:#475053;}
	.st3{fill:#007194;}
	.st4{fill:#9FE8FF;}
</style>
<rect x="8.66667" y="17.69444" class="st0" width="6.78832" height="3.08333"/>
<rect x="3.23628" y="4.83333" class="st0" width="17.51372" height="12.02778"/>
<rect x="3.23628" y="3.63296" class="st1" width="17.34706" height="1.22815"/>
<path class="st2" d="M16.5,21.75h-9c-0.30322,0-0.57666-0.18262-0.69287-0.46289s-0.05176-0.60254,0.1626-0.81738l0.62109-0.62109
	C8.00977,19.42969,8.25,18.84961,8.25,18.25684V18h-3c-1.6543,0-3-1.3457-3-3V5.25c0-1.6543,1.3457-3,3-3h13.5
	c1.6543,0,3,1.3457,3,3V15c0,1.6543-1.3457,3-3,3h-3v0.25684c0,0.59277,0.24023,1.17285,0.65918,1.5918l0.62109,0.62109
	c0.21484,0.21484,0.27832,0.53711,0.16309,0.81738C17.07715,21.56738,16.80371,21.75,16.5,21.75z M9.17871,20.25h5.64648
	c-0.37109-0.59375-0.5752-1.28809-0.5752-1.99316V18h-4.5v0.25684C9.75,18.97363,9.55078,19.65918,9.17871,20.25z M3.75,14.59766V15
	c0,0.82715,0.67285,1.5,1.5,1.5h13.5c0.82715,0,1.5-0.67285,1.5-1.5v-0.40234C19.80859,14.85352,19.2959,15,18.75,15H5.25
	C4.7041,15,4.19141,14.85352,3.75,14.59766z M3.75,12c0,0.82715,0.67285,1.5,1.5,1.5h13.5c0.82715,0,1.5-0.67285,1.5-1.5V5.25
	c0-0.82715-0.67285-1.5-1.5-1.5H5.25c-0.82715,0-1.5,0.67285-1.5,1.5V12z"/>
<rect x="6.09036" y="6" class="st3" width="11.63889" height="2.36111"/>
<path class="st4" d="M9.9375,10.45139H6.79175c-0.38737,0-0.70139-0.31402-0.70139-0.70139l0,0
	c0-0.38737,0.31402-0.70139,0.70139-0.70139H9.9375c0.38737,0,0.70139,0.31402,0.70139,0.70139l0,0
	C10.63889,10.13737,10.32487,10.45139,9.9375,10.45139z"/>
<path class="st4" d="M17.02786,10.45139h-3.14575c-0.38737,0-0.70139-0.31402-0.70139-0.70139l0,0
	c0-0.38737,0.31402-0.70139,0.70139-0.70139h3.14575c0.38737,0,0.70139,0.31402,0.70139,0.70139l0,0
	C17.72925,10.13737,17.41523,10.45139,17.02786,10.45139z"/>
<path class="st4" d="M17.02786,12.54167h-3.14575c-0.38737,0-0.70139-0.31402-0.70139-0.70139l0,0
	c0-0.38737,0.31402-0.70139,0.70139-0.70139h3.14575c0.38737,0,0.70139,0.31402,0.70139,0.70139l0,0
	C17.72925,12.22764,17.41523,12.54167,17.02786,12.54167z"/>
<path class="st4" d="M9.9375,12.54167H6.79175c-0.38737,0-0.70139-0.31402-0.70139-0.70139l0,0
	c0-0.38737,0.31402-0.70139,0.70139-0.70139H9.9375c0.38737,0,0.70139,0.31402,0.70139,0.70139l0,0
	C10.63889,12.22764,10.32487,12.54167,9.9375,12.54167z"/>
</svg>
