<?xml version="1.0" encoding="utf-8"?>
<!-- Generator: Adobe Illustrator 28.2.0, SVG Export Plug-In . SVG Version: 6.00 Build 0)  -->
<svg version="1.1" id="Layer_1" xmlns="http://www.w3.org/2000/svg" xmlns:xlink="http://www.w3.org/1999/xlink" x="0px" y="0px"
	 viewBox="0 0 24 24" style="enable-background:new 0 0 24 24;" xml:space="preserve">
<style type="text/css">
	.st0{fill:#FFFFFF;}
	.st1{fill:url(#SVGID_1_);}
	.st2{fill:#475053;}
	.st3{fill:#A5BDFD;}
</style>
<rect x="6.58333" y="11.25" class="st0" width="10.8125" height="10.8125"/>
<linearGradient id="SVGID_1_" gradientUnits="userSpaceOnUse" x1="6.58333" y1="7.65625" x2="17.39583" y2="7.65625">
	<stop  offset="0" style="stop-color:#77529E"/>
	<stop  offset="0.18087" style="stop-color:#835DA9"/>
	<stop  offset="0.50462" style="stop-color:#A27CC7"/>
	<stop  offset="0.93115" style="stop-color:#D3ACF7"/>
	<stop  offset="1" style="stop-color:#DCB5FF"/>
</linearGradient>
<rect x="6.58333" y="2.25" class="st1" width="10.8125" height="10.8125"/>
<path class="st2" d="M15.75,23.25h-7.5c-1.6543,0-3-1.3457-3-3V3.75c0-1.6543,1.3457-3,3-3h2.25c0.41406,0,0.75,0.33594,0.75,0.75
	s-0.33594,0.75-0.75,0.75H8.25c-0.82715,0-1.5,0.67285-1.5,1.5v16.5c0,0.82715,0.67285,1.5,1.5,1.5h7.5
	c0.82715,0,1.5-0.67285,1.5-1.5V3.75c0-0.82715-0.67285-1.5-1.5-1.5H13.5c-0.41406,0-0.75-0.33594-0.75-0.75s0.33594-0.75,0.75-0.75
	h2.25c1.6543,0,3,1.3457,3,3v16.5C18.75,21.9043,17.4043,23.25,15.75,23.25z"/>
<path class="st2" d="M13.5,3.75h-3c-0.41406,0-0.75-0.33594-0.75-0.75V1.5c0-0.41406,0.33594-0.75,0.75-0.75s0.75,0.33594,0.75,0.75
	v0.75h1.5V1.5c0-0.41406,0.33594-0.75,0.75-0.75s0.75,0.33594,0.75,0.75V3C14.25,3.41406,13.91406,3.75,13.5,3.75z"/>
<path class="st2" d="M13.5,2.25h-3c-0.41406,0-0.75-0.33594-0.75-0.75s0.33594-0.75,0.75-0.75h3c0.41406,0,0.75,0.33594,0.75,0.75
	S13.91406,2.25,13.5,2.25z"/>
<path class="st3" d="M11.54167,15.20833H8.75c-0.25313,0-0.45833-0.2052-0.45833-0.45833v0
	c0-0.25313,0.2052-0.45833,0.45833-0.45833h2.79167C11.7948,14.29167,12,14.49687,12,14.75v0
	C12,15.00313,11.7948,15.20833,11.54167,15.20833z"/>
<path class="st3" d="M15.02083,16.65625H8.75c-0.25313,0-0.45833-0.2052-0.45833-0.45833l0,0
	c0-0.25313,0.2052-0.45833,0.45833-0.45833h6.27083c0.25313,0,0.45833,0.2052,0.45833,0.45833l0,0
	C15.47917,16.45105,15.27396,16.65625,15.02083,16.65625z"/>
<path class="st3" d="M11.54167,18.10417H8.75c-0.25313,0-0.45833-0.2052-0.45833-0.45833l0,0
	c0-0.25313,0.2052-0.45833,0.45833-0.45833h2.79167C11.7948,17.1875,12,17.3927,12,17.64583l0,0
	C12,17.89896,11.7948,18.10417,11.54167,18.10417z"/>
<path class="st3" d="M15.02083,19.55208H8.75c-0.25313,0-0.45833-0.2052-0.45833-0.45833l0,0
	c0-0.25313,0.2052-0.45833,0.45833-0.45833h6.27083c0.25313,0,0.45833,0.2052,0.45833,0.45833l0,0
	C15.47917,19.34688,15.27396,19.55208,15.02083,19.55208z"/>
<path class="st2" d="M13.89583,1.35417H10.25c-0.27614,0-0.5,0.22386-0.5,0.5v0c0,0.27614,0.22386,0.5,0.5,0.5h3.64583
	c0.27614,0,0.5-0.22386,0.5-0.5v0C14.39583,1.57802,14.17198,1.35417,13.89583,1.35417z"/>
</svg>
