<?xml version="1.0" encoding="utf-8"?>
<!-- Generator: Adobe Illustrator 28.2.0, SVG Export Plug-In . SVG Version: 6.00 Build 0)  -->
<svg version="1.1" id="Layer_1" xmlns="http://www.w3.org/2000/svg" xmlns:xlink="http://www.w3.org/1999/xlink" x="0px" y="0px"
	 viewBox="0 0 160 160" style="enable-background:new 0 0 160 160;" xml:space="preserve">
<style type="text/css">
	.st0{fill:#F0F9FE;}
	.st1{font-family:'Garamond';}
	.st2{font-size:22px;}
	.st3{fill:#BBBCBB;stroke:#BBBCBB;stroke-width:0.25;stroke-miterlimit:10;}
	.st4{fill:#6D6E73;stroke:#6D6E73;stroke-width:0.25;stroke-miterlimit:10;}
	.st5{fill:#988E8F;stroke:#988E8F;stroke-width:0.25;stroke-miterlimit:10;}
	.st6{fill:#EDDCC8;stroke:#EDDCC8;stroke-width:0.25;stroke-miterlimit:10;}
</style>
<text transform="matrix(1 0 0 1 12.0141 147.7883)" class="st0 st1 st2">WEB DESIGN</text>
<g>
	<path class="st0" d="M40.54,109.61H27.48v8.17c0,0.33,0.08,0.59,0.24,0.77c0.16,0.18,0.43,0.32,0.82,0.42v0.53h-7.07v-0.53
		c0.4-0.11,0.67-0.25,0.83-0.43c0.15-0.18,0.23-0.43,0.23-0.76V98.57c0-0.33-0.08-0.59-0.23-0.76c-0.16-0.18-0.43-0.32-0.83-0.43
		v-0.53h7.07v0.53c-0.4,0.1-0.68,0.24-0.83,0.42c-0.16,0.18-0.23,0.44-0.23,0.77v7.3h13.07v-7.3c0-0.33-0.08-0.59-0.23-0.77
		c-0.16-0.18-0.43-0.32-0.83-0.42v-0.53h7.07v0.53c-0.4,0.11-0.68,0.25-0.83,0.43c-0.16,0.18-0.23,0.43-0.23,0.76v19.21
		c0,0.33,0.08,0.59,0.23,0.76c0.15,0.18,0.43,0.32,0.83,0.43v0.53h-7.07v-0.53c0.39-0.1,0.66-0.24,0.82-0.42
		c0.16-0.18,0.24-0.44,0.24-0.77V109.61z"/>
	<path class="st0" d="M69.66,102.61v9.84c0,2.25-0.44,3.9-1.33,4.95c-1.43,1.67-4.12,2.51-8.07,2.51c-2.65,0-4.78-0.4-6.41-1.21
		c-1.17-0.59-1.98-1.42-2.41-2.51c-0.4-1-0.6-2.24-0.6-3.74v-9.84c0-0.34-0.08-0.6-0.23-0.78c-0.16-0.18-0.43-0.33-0.83-0.45v-0.46
		h6.57v0.46c-0.4,0.11-0.68,0.26-0.83,0.44c-0.15,0.18-0.23,0.45-0.23,0.79v8.95c0,1.04,0.09,1.84,0.27,2.39s0.5,1.01,0.95,1.36
		c0.91,0.72,2.22,1.08,3.93,1.08c1.72,0,3.03-0.36,3.93-1.08c0.44-0.35,0.75-0.81,0.93-1.36c0.18-0.55,0.27-1.35,0.27-2.39v-8.95
		c0-0.34-0.07-0.6-0.22-0.78s-0.43-0.33-0.84-0.45v-0.46h6.19v0.46c-0.4,0.11-0.68,0.26-0.83,0.44
		C69.74,102,69.66,102.26,69.66,102.61z"/>
	<path class="st0" d="M74.62,117.81v-15.21c0-0.34-0.08-0.6-0.23-0.78c-0.16-0.18-0.43-0.33-0.83-0.45v-0.46h10.91
		c2.27,0,4.06,0.28,5.36,0.85c1.84,0.8,3.16,2.11,3.97,3.95c0.56,1.28,0.85,2.78,0.85,4.5c0,3.18-0.95,5.58-2.84,7.22
		c-0.85,0.73-1.86,1.26-3.01,1.58c-1.16,0.33-2.6,0.49-4.32,0.49H73.56v-0.46c0.39-0.1,0.66-0.24,0.82-0.43
		C74.54,118.42,74.62,118.16,74.62,117.81z M79.07,116.14h4.75c2.18,0,3.76-0.5,4.75-1.49c1.03-1.04,1.54-2.52,1.54-4.43
		s-0.51-3.39-1.54-4.43c-0.51-0.52-1.14-0.9-1.89-1.14c-0.75-0.24-1.71-0.36-2.86-0.36h-4.75V116.14z"/>
	<path class="st0" d="M98.48,117.81v-15.21c0-0.34-0.08-0.6-0.23-0.78s-0.43-0.33-0.83-0.45v-0.46h10.91c2.27,0,4.06,0.28,5.36,0.85
		c1.84,0.8,3.16,2.11,3.97,3.95c0.56,1.28,0.85,2.78,0.85,4.5c0,3.18-0.95,5.58-2.84,7.22c-0.85,0.73-1.86,1.26-3.01,1.58
		c-1.16,0.33-2.6,0.49-4.33,0.49H97.41v-0.46c0.39-0.1,0.66-0.24,0.82-0.43C98.4,118.42,98.48,118.16,98.48,117.81z M102.92,116.14
		h4.75c2.18,0,3.76-0.5,4.75-1.49c1.03-1.04,1.54-2.52,1.54-4.43s-0.51-3.39-1.54-4.43c-0.51-0.52-1.14-0.9-1.89-1.14
		c-0.75-0.24-1.7-0.36-2.86-0.36h-4.75V116.14z"/>
	<path class="st0" d="M139.15,102.59l-2.24,4.33l-0.4-0.22c0-0.37-0.12-0.65-0.35-0.86c-0.63-0.56-1.56-1.03-2.79-1.39
		c-1.23-0.37-2.47-0.55-3.73-0.55c-1.07,0-2.03,0.15-2.86,0.45c-1.2,0.43-1.79,1.06-1.79,1.88c0,0.54,0.29,0.93,0.86,1.15
		c0.58,0.23,1.69,0.41,3.34,0.54l2.62,0.2c2.29,0.18,4.03,0.62,5.23,1.33c0.66,0.4,1.21,0.93,1.64,1.59
		c0.54,0.83,0.81,1.77,0.81,2.81c0,1.89-0.85,3.39-2.56,4.48c-1.63,1.05-3.83,1.58-6.61,1.58c-2.8,0-5.51-0.59-8.12-1.78
		c-0.18-0.08-0.33-0.12-0.45-0.12c-0.22,0-0.43,0.13-0.61,0.4l-0.42-0.17l1.91-4.55l0.42,0.17c0,0.07,0,0.11,0,0.13
		c0,0.29,0.11,0.53,0.33,0.73c0.55,0.49,1.51,0.91,2.87,1.27c1.36,0.36,2.71,0.54,4.03,0.54c1.17,0,2.22-0.16,3.15-0.46
		c1.15-0.38,1.73-0.99,1.73-1.83c0-0.67-0.4-1.15-1.2-1.41c-0.53-0.18-1.49-0.33-2.87-0.45l-2.61-0.22
		c-1.41-0.11-2.48-0.25-3.22-0.43c-0.74-0.18-1.39-0.44-1.94-0.78c-0.71-0.44-1.26-1.05-1.66-1.81s-0.6-1.6-0.6-2.51
		c0-2.04,0.87-3.59,2.62-4.67c1.59-0.97,3.56-1.46,5.91-1.46c1.27,0,2.46,0.14,3.56,0.42c1.1,0.28,2.41,0.78,3.94,1.49
		c0.46,0.21,0.77,0.32,0.95,0.32c0.18,0,0.4-0.12,0.68-0.37L139.15,102.59z"/>
</g>
<g>
	<path class="st3" d="M102.89,72.83c-3.17,6.66-9.19,11.69-16.49,13.51c1.94,0.49,3.98,0.76,6.08,0.76
		c13.8,0,24.97-11.18,24.97-24.97c0-2.06-0.25-4.08-0.73-6C114.9,63.57,109.73,69.7,102.89,72.83z"/>
	<path class="st3" d="M57.91,73.18c-7.22-3.01-12.73-9.32-14.64-17.05c-0.48,1.92-0.73,3.94-0.73,6c0,13.79,11.18,24.97,24.97,24.97
		c2.21,0,4.36-0.29,6.4-0.84C66.88,84.41,61.07,79.58,57.91,73.18z"/>
	<path class="st3" d="M57.35,27.32c2.99-6.98,9.08-12.34,16.55-14.3c-2.04-0.55-4.18-0.84-6.38-0.84
		c-13.79,0-24.97,11.18-24.97,24.97c0,2.24,0.3,4.42,0.86,6.49C45.36,36.33,50.55,30.34,57.35,27.32z"/>
	<path class="st3" d="M103.42,27.66v0.01c6.42,3.12,11.3,8.93,13.18,15.96c0.56-2.08,0.86-4.25,0.86-6.49
		c0-13.79-11.17-24.97-24.97-24.97c-2.1,0-4.14,0.26-6.08,0.76C94.14,14.86,100.44,20.4,103.42,27.66z"/>
	<path class="st4" d="M102.89,72.83c-3.17,1.45-6.68,2.27-10.4,2.27c-1.18,0-2.34-0.08-3.48-0.25c-3.24-0.44-6.29-1.51-9-3.1
		c-2.71,1.57-5.76,2.65-9.01,3.1c-1.14,0.17-2.3,0.25-3.48,0.25c-3.41,0-6.65-0.68-9.6-1.92c3.16,6.4,8.96,11.23,16,13.08
		c2.04,0.55,4.19,0.84,6.4,0.84c2.1,0,4.15-0.26,6.1-0.76C93.7,84.52,99.72,79.49,102.89,72.83z"/>
	<path class="st4" d="M57.35,27.32c3.1-1.39,6.54-2.16,10.16-2.16c1.01,0,1.99,0.06,2.96,0.18c3.44,0.4,6.67,1.51,9.53,3.17
		c2.86-1.67,6.08-2.77,9.52-3.17c0.97-0.12,1.97-0.18,2.96-0.18c3.92,0,7.63,0.9,10.93,2.51c-2.98-7.26-9.28-12.8-17.02-14.74
		c-1.94-0.49-4-0.76-6.1-0.76c-2.21,0-4.36,0.29-6.4,0.84H73.9C66.43,14.98,60.34,20.33,57.35,27.32z"/>
	<path class="st4" d="M116.59,43.64c-1.87-7.03-6.76-12.84-13.18-15.96c1.21,2.92,1.87,6.12,1.87,9.47c0,1.15-0.08,2.29-0.24,3.4
		c-0.43,3.28-1.51,6.35-3.11,9.1c1.6,2.75,2.68,5.82,3.11,9.1c0.16,1.1,0.24,2.24,0.24,3.4c0,3.83-0.86,7.46-2.4,10.7
		c6.84-3.13,12.01-9.26,13.84-16.7c0.48-1.92,0.73-3.94,0.73-6C117.46,47.88,117.16,45.7,116.59,43.64z"/>
	<path class="st5" d="M92.49,25.16c-1,0-1.99,0.06-2.96,0.18c-3.43,0.4-6.66,1.5-9.52,3.17c3.71,2.14,6.82,5.21,8.99,8.89
		c0.25,0.42,0.49,0.86,0.71,1.3c0.24,0.17,0.46,0.36,0.67,0.57c0.66,0.29,1.3,0.59,1.92,0.93c4.02,2.21,7.37,5.47,9.65,9.43
		c1.6-2.75,2.68-5.82,3.11-9.1c0.16-1.1,0.24-2.24,0.24-3.4c0-3.35-0.66-6.55-1.87-9.47v-0.01C100.12,26.06,96.41,25.16,92.49,25.16
		z"/>
	<path class="st5" d="M92.29,59.07c-0.43,0.24-0.89,0.44-1.34,0.65c-0.22,0.26-0.45,0.5-0.71,0.72c-0.23,0.51-0.47,1.01-0.72,1.51
		c-2.21,4.08-5.51,7.49-9.52,9.8c2.71,1.58,5.76,2.65,9,3.1c1.14,0.17,2.3,0.25,3.48,0.25c3.72,0,7.24-0.82,10.4-2.27
		c1.54-3.24,2.4-6.88,2.4-10.7c0-1.15-0.08-2.29-0.24-3.4c-0.43-3.28-1.51-6.35-3.11-9.1C99.66,53.6,96.31,56.86,92.29,59.07z"/>
	<path class="st4" d="M57.91,73.18c-1.66-3.34-2.58-7.09-2.58-11.05c0-1.03,0.06-2.06,0.19-3.06c0.41-3.41,1.51-6.6,3.16-9.43
		c-1.64-2.83-2.75-6.02-3.16-9.43c-0.13-1-0.19-2.03-0.19-3.06c0-3.49,0.72-6.8,2.02-9.83c-6.8,3.02-11.99,9.01-13.94,16.32
		c-0.56,2.06-0.86,4.25-0.86,6.49c0,2.06,0.25,4.08,0.73,6C45.18,63.86,50.69,70.17,57.91,73.18z"/>
	<path class="st5" d="M67.75,40.53c0.6-0.35,1.22-0.68,1.86-0.98c0.15-0.18,0.32-0.34,0.5-0.49c0.28-0.57,0.57-1.12,0.9-1.66
		c2.18-3.68,5.29-6.76,9-8.89c-2.86-1.66-6.08-2.77-9.53-3.17c-0.97-0.12-1.96-0.18-2.96-0.18c-3.62,0-7.07,0.77-10.16,2.16
		c-1.3,3.02-2.02,6.34-2.02,9.83c0,1.03,0.06,2.06,0.19,3.06c0.41,3.41,1.51,6.6,3.16,9.43C60.85,45.87,63.99,42.72,67.75,40.53z"/>
	<path class="st5" d="M70.48,61.95c-0.32-0.61-0.62-1.25-0.9-1.89c-0.22-0.21-0.43-0.43-0.62-0.67c-0.41-0.21-0.82-0.42-1.21-0.65
		c-3.77-2.2-6.9-5.34-9.07-9.11c-1.64,2.83-2.75,6.02-3.16,9.43c-0.13,1-0.19,2.03-0.19,3.06c0,3.96,0.92,7.72,2.58,11.05
		c2.95,1.24,6.19,1.92,9.6,1.92c1.18,0,2.34-0.08,3.48-0.25c3.25-0.44,6.3-1.52,9.01-3.1C75.99,69.44,72.69,66.04,70.48,61.95z"/>
	<path class="st3" d="M92.29,40.2c-0.62-0.34-1.26-0.65-1.92-0.93c-0.21-0.21-0.43-0.4-0.67-0.57c-0.23-0.44-0.46-0.88-0.71-1.3
		c-2.17-3.68-5.28-6.76-8.99-8.89c-3.71,2.14-6.82,5.21-9,8.89c-0.33,0.54-0.62,1.1-0.9,1.66c-0.18,0.15-0.34,0.31-0.5,0.49
		c-0.64,0.3-1.26,0.63-1.86,0.98c-3.77,2.2-6.9,5.34-9.07,9.11c2.17,3.77,5.3,6.91,9.07,9.11c0.39,0.23,0.8,0.44,1.21,0.65
		c0.19,0.24,0.4,0.46,0.62,0.67c0.28,0.64,0.58,1.27,0.9,1.89c2.21,4.09,5.51,7.49,9.53,9.8c4.01-2.32,7.31-5.72,9.52-9.8
		c0.26-0.49,0.49-1,0.72-1.51c0.26-0.22,0.5-0.46,0.71-0.72c0.45-0.21,0.91-0.41,1.34-0.65c4.02-2.21,7.37-5.47,9.65-9.43
		C99.66,45.68,96.31,42.41,92.29,40.2z M89.51,49.75c-0.01,0.14-0.04,0.3-0.07,0.45c-0.6,3.06-5.69,8.25-8.79,8.93
		c-0.24,0.05-0.46,0.08-0.68,0.08c-0.14,0-0.3-0.03-0.45-0.05c-3.15-0.47-8.4-5.84-8.97-8.92c-0.04-0.21-0.06-0.41-0.05-0.59
		c-0.01-0.14,0.02-0.3,0.04-0.45c0.41-3,5.59-8.4,8.81-9.05c0.22-0.04,0.43-0.07,0.62-0.07c0.21,0,0.44,0.03,0.68,0.08
		c3.1,0.67,8.19,5.87,8.79,8.93c0.03,0.15,0.06,0.31,0.07,0.45V49.75z"/>
	<path class="st6" d="M80.65,40.15c-0.24-0.05-0.47-0.08-0.68-0.08c-0.2,0-0.41,0.02-0.62,0.07c-3.22,0.65-8.4,6.05-8.81,9.05
		c-0.02,0.15-0.04,0.31-0.04,0.45c-0.01,0.18,0.01,0.38,0.05,0.59c0.57,3.08,5.82,8.46,8.97,8.92c0.15,0.02,0.31,0.05,0.45,0.05
		c0.21,0,0.44-0.03,0.68-0.08c3.1-0.67,8.19-5.86,8.79-8.93c0.03-0.15,0.06-0.31,0.07-0.45v-0.22c-0.01-0.14-0.04-0.29-0.07-0.45
		C88.84,46.02,83.75,40.82,80.65,40.15z"/>
</g>
</svg>
