<?xml version="1.0" encoding="utf-8"?>
<!-- Generator: Adobe Illustrator 28.2.0, SVG Export Plug-In . SVG Version: 6.00 Build 0)  -->
<svg version="1.1" id="Layer_1" xmlns="http://www.w3.org/2000/svg" xmlns:xlink="http://www.w3.org/1999/xlink" x="0px" y="0px"
	 viewBox="0 0 160 160" style="enable-background:new 0 0 160 160;" xml:space="preserve">
<style type="text/css">
	.st0{fill:#BBBCBB;stroke:#BBBCBB;stroke-width:0.25;stroke-miterlimit:10;}
	.st1{fill:#6D6E73;stroke:#6D6E73;stroke-width:0.25;stroke-miterlimit:10;}
	.st2{fill:#988E8F;stroke:#988E8F;stroke-width:0.25;stroke-miterlimit:10;}
	.st3{fill:#EDDCC8;stroke:#EDDCC8;stroke-width:0.25;stroke-miterlimit:10;}
</style>
<g>
	<path class="st0" d="M128.28,128.91c-6.68,14.04-19.39,24.65-34.77,28.49c4.1,1.04,8.4,1.59,12.83,1.59
		c29.1,0,52.67-23.58,52.67-52.66c0-4.35-0.53-8.6-1.54-12.65C153.61,109.38,142.7,122.31,128.28,128.91z"/>
	<path class="st0" d="M33.42,129.65C18.18,123.3,6.57,109.99,2.54,93.69C1.53,97.74,1,101.99,1,106.34C1,135.42,24.59,159,53.67,159
		c4.66,0,9.19-0.61,13.49-1.77C52.33,153.33,40.08,143.13,33.42,129.65z"/>
	<path class="st0" d="M32.23,32.93c6.3-14.73,19.16-26.01,34.9-30.16C62.83,1.61,58.32,1,53.67,1C24.59,1,1,24.58,1,53.66
		c0,4.73,0.63,9.31,1.82,13.69C6.95,51.94,17.88,39.31,32.23,32.93z"/>
	<path class="st0" d="M129.39,33.67v0.03c13.54,6.58,23.84,18.83,27.79,33.65c1.19-4.38,1.82-8.96,1.82-13.69
		C159,24.58,135.44,1,106.33,1C101.9,1,97.6,1.56,93.5,2.59C109.83,6.67,123.11,18.36,129.39,33.67z"/>
	<path class="st1" d="M128.28,128.91c-6.68,3.06-14.1,4.78-21.94,4.78c-2.48,0-4.94-0.18-7.34-0.53
		c-6.83-0.94-13.26-3.19-18.98-6.53c-5.72,3.31-12.15,5.59-19.01,6.53c-2.4,0.35-4.86,0.53-7.34,0.53c-7.19,0-14.02-1.44-20.25-4.05
		c6.66,13.49,18.91,23.68,33.74,27.58c4.3,1.16,8.83,1.77,13.49,1.77c4.43,0,8.76-0.56,12.86-1.59
		C108.89,153.56,121.59,142.96,128.28,128.91z"/>
	<path class="st1" d="M32.23,32.93c6.53-2.94,13.79-4.55,21.44-4.55c2.13,0,4.2,0.13,6.25,0.38c7.26,0.84,14.07,3.19,20.09,6.68
		c6.02-3.52,12.83-5.85,20.07-6.68c2.05-0.25,4.15-0.38,6.25-0.38c8.28,0,16.1,1.9,23.06,5.29c-6.28-15.31-19.56-27-35.89-31.07
		C89.4,1.56,85.07,1,80.65,1c-4.66,0-9.19,0.61-13.49,1.77h-0.03C51.39,6.92,38.53,18.21,32.23,32.93z"/>
	<path class="st1" d="M157.18,67.35c-3.95-14.83-14.25-27.08-27.79-33.65c2.56,6.15,3.95,12.91,3.95,19.97
		c0,2.43-0.18,4.83-0.51,7.16c-0.91,6.91-3.19,13.39-6.55,19.18c3.37,5.79,5.64,12.27,6.55,19.18c0.33,2.33,0.51,4.73,0.51,7.16
		c0,8.07-1.82,15.74-5.06,22.57c14.43-6.6,25.33-19.53,29.18-35.22c1.01-4.05,1.54-8.3,1.54-12.65
		C159,76.31,158.37,71.7,157.18,67.35z"/>
	<path class="st2" d="M106.33,28.38c-2.1,0-4.2,0.13-6.25,0.38c-7.24,0.84-14.05,3.16-20.07,6.68c7.82,4.5,14.38,10.98,18.96,18.75
		c0.53,0.89,1.03,1.82,1.5,2.75c0.5,0.37,0.97,0.77,1.41,1.21c1.39,0.6,2.74,1.25,4.04,1.97c8.48,4.66,15.54,11.54,20.35,19.89
		c3.37-5.79,5.64-12.27,6.55-19.18c0.33-2.33,0.51-4.73,0.51-7.16c0-7.06-1.39-13.82-3.95-19.97v-0.03
		C122.43,30.28,114.61,28.38,106.33,28.38z"/>
	<path class="st2" d="M105.93,99.89c-0.91,0.5-1.87,0.94-2.82,1.37c-0.46,0.55-0.95,1.06-1.5,1.52c-0.49,1.07-0.98,2.14-1.52,3.18
		c-4.66,8.6-11.62,15.79-20.07,20.67c5.72,3.34,12.15,5.59,18.98,6.53c2.4,0.35,4.86,0.53,7.34,0.53c7.85,0,15.26-1.72,21.94-4.78
		c3.24-6.83,5.06-14.5,5.06-22.57c0-2.43-0.18-4.83-0.51-7.16c-0.91-6.91-3.19-13.39-6.55-19.18
		C121.47,88.35,114.41,95.23,105.93,99.89z"/>
	<path class="st1" d="M33.42,129.65c-3.49-7.03-5.44-14.95-5.44-23.31c0-2.18,0.13-4.35,0.4-6.45c0.86-7.19,3.19-13.92,6.66-19.89
		c-3.47-5.97-5.8-12.7-6.66-19.89c-0.28-2.1-0.4-4.28-0.4-6.45c0-7.36,1.52-14.35,4.25-20.72c-14.35,6.38-25.28,19-29.41,34.41
		C1.63,71.7,1,76.31,1,81.04c0,4.35,0.53,8.6,1.54,12.65C6.57,109.99,18.18,123.3,33.42,129.65z"/>
	<path class="st2" d="M54.17,60.79c1.26-0.74,2.58-1.43,3.92-2.06c0.32-0.38,0.67-0.73,1.05-1.04c0.58-1.19,1.2-2.37,1.89-3.5
		c4.61-7.77,11.16-14.25,18.98-18.75c-6.02-3.49-12.83-5.85-20.09-6.68c-2.05-0.25-4.13-0.38-6.25-0.38
		c-7.64,0-14.91,1.62-21.44,4.55c-2.73,6.38-4.25,13.36-4.25,20.72c0,2.18,0.13,4.35,0.4,6.45c0.86,7.19,3.19,13.92,6.66,19.89
		C39.62,72.05,46.23,65.42,54.17,60.79z"/>
	<path class="st2" d="M59.92,105.96c-0.68-1.29-1.31-2.63-1.89-3.98c-0.47-0.44-0.91-0.9-1.31-1.41c-0.86-0.44-1.72-0.88-2.55-1.37
		C46.23,94.58,39.62,87.95,35.04,80c-3.47,5.97-5.8,12.7-6.66,19.89c-0.28,2.1-0.4,4.28-0.4,6.45c0,8.35,1.95,16.27,5.44,23.31
		c6.23,2.61,13.06,4.05,20.25,4.05c2.48,0,4.94-0.18,7.34-0.53c6.86-0.94,13.29-3.21,19.01-6.53
		C71.53,121.75,64.57,114.59,59.92,105.96z"/>
	<path class="st0" d="M105.93,60.11c-1.31-0.71-2.66-1.36-4.04-1.97c-0.44-0.44-0.91-0.84-1.41-1.21c-0.48-0.93-0.97-1.86-1.5-2.75
		c-4.58-7.77-11.14-14.25-18.96-18.75c-7.82,4.5-14.38,10.98-18.98,18.75c-0.69,1.14-1.31,2.31-1.89,3.5
		c-0.37,0.32-0.72,0.66-1.05,1.04c-1.34,0.63-2.66,1.32-3.92,2.06C46.23,65.42,39.62,72.05,35.04,80
		c4.58,7.95,11.19,14.58,19.13,19.21c0.82,0.49,1.69,0.93,2.55,1.37c0.39,0.51,0.84,0.97,1.31,1.41c0.58,1.35,1.21,2.68,1.89,3.98
		c4.66,8.63,11.62,15.79,20.09,20.67c8.45-4.88,15.41-12.07,20.07-20.67c0.54-1.04,1.03-2.11,1.52-3.18
		c0.55-0.46,1.05-0.97,1.5-1.52c0.95-0.44,1.91-0.87,2.82-1.37c8.48-4.66,15.54-11.54,20.35-19.89
		C121.47,71.65,114.41,64.77,105.93,60.11z M100.05,80.23c-0.01,0.3-0.08,0.63-0.15,0.95c-1.27,6.46-12,17.4-18.54,18.82
		c-0.5,0.11-0.98,0.17-1.42,0.16c-0.3,0-0.63-0.05-0.95-0.1c-6.65-0.99-17.72-12.32-18.92-18.82c-0.08-0.44-0.12-0.86-0.11-1.25
		c-0.01-0.3,0.04-0.62,0.08-0.95c0.87-6.32,11.79-17.71,18.59-19.08c0.46-0.09,0.9-0.14,1.32-0.14c0.45-0.01,0.93,0.05,1.43,0.16
		c6.54,1.42,17.27,12.37,18.54,18.83c0.06,0.32,0.13,0.65,0.15,0.94V80.23z"/>
	<path class="st3" d="M81.36,59.99c-0.5-0.11-0.98-0.17-1.43-0.16c-0.42,0-0.86,0.05-1.32,0.14c-6.79,1.37-17.72,12.76-18.59,19.08
		c-0.04,0.33-0.09,0.65-0.08,0.95c-0.01,0.39,0.03,0.81,0.11,1.25c1.2,6.5,12.28,17.83,18.92,18.82c0.32,0.05,0.65,0.1,0.95,0.1
		c0.44,0.01,0.92-0.05,1.42-0.16c6.54-1.42,17.27-12.37,18.54-18.82c0.06-0.32,0.13-0.65,0.15-0.95v-0.47
		c-0.01-0.3-0.08-0.62-0.15-0.94C98.64,72.37,87.91,61.41,81.36,59.99z"/>
</g>
</svg>
