<?xml version="1.0" encoding="UTF-8"?>
<svg id="Layer_1" data-name="Layer 1" xmlns="http://www.w3.org/2000/svg" version="1.1" viewBox="0 0 16 16">
  <defs>
    <style>
      .cls-1, .cls-2 {
        fill: #2e94b9;
        stroke-width: 0px;
      }

      .cls-2 {
        fill-rule: evenodd;
      }
    </style>
  </defs>
  <path class="cls-1" d="M5,6.25c0,.4142-.3358.75-.75.75s-.75-.3358-.75-.75.3358-.75.75-.75.75.3358.75.75M6.138,4.754c.5938-.1697,1.2084-.2552,1.826-.254.666,0,1.303.097,1.893.273.2662.0734.5415-.0828.615-.349.0713-.2583-.0738-.5269-.329-.609-.7072-.2102-1.4412-.3163-2.179-.315-.734,0-1.441.103-2.102.292-.2656.0762-.4192.3534-.343.619.0762.2656.3534.4192.619.343"/>
  <path class="cls-2" d="M7.964,1.527c-2.977,0-5.571,1.704-6.32,4.125h-.55c-.5523.0006-.9995.4488-.9989,1.0011,0,.0573.005.1145.0149.1709l.254,1.46c.125.7186.7487,1.2431,1.478,1.243h.263c.3.513.688.978,1.145,1.382l-.729,2.477c-.0779.2649.0738.5428.3387.6207.0459.0135.0935.0203.1413.0203h2c.2114,0,.4-.1329.471-.332l.482-1.351c.635.173,1.31.267,2.011.267.707,0,1.388-.095,2.028-.272l.543,1.372c.0755.1908.2599.316.465.316h2c.2761-.0003.4998-.2244.4995-.5005,0-.049-.0073-.0976-.0215-.1445l-.761-2.506c1.092-.981,1.782-2.317,1.782-3.807,0-.1453-.0067-.289-.02-.431.261-.11.508-.266.705-.444.315.306.815.306.815-.417,0,.223-.5.223-.461-.026.0414-.0805.0717-.1663.09-.255.0478-.2354-.0285-.4789-.202-.645-.1853-.191-.4768-.2314-.707-.098-.2082.116-.3478.3252-.375.562-.024.243.082.48.32.654-.0824.0574-.1689.1086-.259.153-.534-2.664-3.284-4.595-6.442-4.595M2.516,6.26c.455-2.066,2.667-3.733,5.448-3.733,3.146,0,5.536,2.114,5.536,4.542,0,1.254-.624,2.41-1.67,3.248-.159.1279-.2244.3397-.165.535l.66,2.175h-.985l-.59-1.487c-.0987-.249-.376-.3759-.629-.288-.661.23-1.39.359-2.157.359-.734.0011-1.463-.1202-2.157-.359-.2592-.0901-.5426.0456-.635.304l-.525,1.471h-.979l.633-2.15c.0578-.196-.0095-.4075-.17-.534-.535-.4141-.9732-.94-1.284-1.541-.0849-.1685-.2574-.2748-.446-.275h-.56c-.2428-.0003-.4502-.1749-.492-.414l-.254-1.46h.933c.2348-.0002.4378-.1637.488-.393M15.137,5.403c-.0187.0757-.052.147-.098.21l-.044-.025c-.146-.09-.157-.175-.152-.223.0105-.0725.0536-.1362.117-.173.049-.027.08-.021.113.012.0571.049.0818.1259.064.199"/>
</svg>